<svg width="59" height="28" viewBox="0 0 59 28" fill="none" xmlns="http://www.w3.org/2000/svg">
<path d="M30.0002 18.0834C29.8467 18.0843 29.6945 18.0548 29.5523 17.9968C29.4102 17.9387 29.2809 17.8532 29.1719 17.7451L24.5052 13.0784C24.3964 12.9696 24.3102 12.8405 24.2513 12.6983C24.1924 12.5562 24.1621 12.4039 24.1621 12.2501C24.1621 12.0962 24.1924 11.9439 24.2513 11.8018C24.3102 11.6596 24.3964 11.5305 24.5052 11.4217C24.614 11.3129 24.7431 11.2267 24.8853 11.1678C25.0274 11.1089 25.1797 11.0786 25.3336 11.0786C25.4874 11.0786 25.6397 11.1089 25.7818 11.1678C25.924 11.2267 26.0531 11.3129 26.1619 11.4217L30.0002 15.2834L33.8502 11.5734C33.9575 11.454 34.0883 11.3581 34.2344 11.2917C34.3805 11.2252 34.5387 11.1895 34.6992 11.187C34.8597 11.1845 35.019 11.2151 35.1671 11.2769C35.3152 11.3387 35.449 11.4304 35.56 11.5463C35.6711 11.6622 35.757 11.7997 35.8125 11.9503C35.8679 12.1009 35.8917 12.2614 35.8824 12.4216C35.873 12.5818 35.8307 12.7384 35.758 12.8815C35.6854 13.0246 35.584 13.1512 35.4602 13.2534L30.7936 17.7567C30.5802 17.9624 30.2966 18.0792 30.0002 18.0834Z" fill="#49214D"/>
</svg>
