<svg width="18" height="22" viewBox="0 0 18 22" fill="none" xmlns="http://www.w3.org/2000/svg">
<path d="M8.99993 21.8335C10.1916 21.8335 11.1666 20.8585 11.1666 19.6668H6.83327C6.83327 20.8585 7.79743 21.8335 8.99993 21.8335ZM15.4999 15.3335V9.91683C15.4999 6.591 13.7233 3.80683 10.6249 3.07016V2.3335C10.6249 1.43433 9.8991 0.708496 8.99993 0.708496C8.10077 0.708496 7.37493 1.43433 7.37493 2.3335V3.07016C4.26577 3.80683 2.49993 6.58016 2.49993 9.91683V15.3335L1.10243 16.731C0.419934 17.4135 0.8966 18.5835 1.86077 18.5835H16.1283C17.0924 18.5835 17.5799 17.4135 16.8974 16.731L15.4999 15.3335Z" fill="#49214D"/>
</svg>
