<svg width="22" height="22" viewBox="0 0 22 22" fill="none" xmlns="http://www.w3.org/2000/svg">
<path d="M6.5835 17.4998C5.39183 17.4998 4.42766 18.4748 4.42766 19.6665C4.42766 20.8582 5.39183 21.8332 6.5835 21.8332C7.77516 21.8332 8.75016 20.8582 8.75016 19.6665C8.75016 18.4748 7.77516 17.4998 6.5835 17.4998ZM0.0834961 1.24984C0.0834961 1.84567 0.570996 2.33317 1.16683 2.33317H2.25016L6.15016 10.5557L4.68766 13.199C3.89683 14.6507 4.93683 16.4165 6.5835 16.4165H18.5002C19.096 16.4165 19.5835 15.929 19.5835 15.3332C19.5835 14.7373 19.096 14.2498 18.5002 14.2498H6.5835L7.77516 12.0832H15.846C16.6585 12.0832 17.3735 11.639 17.7418 10.9673L21.6202 3.9365C22.021 3.2215 21.501 2.33317 20.6777 2.33317H4.64433L3.9185 0.784004C3.74516 0.404837 3.35516 0.166504 2.9435 0.166504H1.16683C0.570996 0.166504 0.0834961 0.654004 0.0834961 1.24984ZM17.4168 17.4998C16.2252 17.4998 15.261 18.4748 15.261 19.6665C15.261 20.8582 16.2252 21.8332 17.4168 21.8332C18.6085 21.8332 19.5835 20.8582 19.5835 19.6665C19.5835 18.4748 18.6085 17.4998 17.4168 17.4998Z" fill="#49214D"/>
</svg>
